:FULLY-SPECIFIED
:FORCE-ALL-JOINTS-BE-3DOF
:DEGREES
34
root 5.99049 16.8907 -28.081 10.0265 -1.60199 -2.42206
lfemur -20.897 2.41167 -19.5873
ltibia 34.8953 -0 0
lfoot -35.3552 3.19808 -0.118029
ltoes 36.4397 -0 0
rfemur -16.8449 6.90832 19.7333
rtibia 30.6111 -0 0
rfoot -27.5509 -18.9824 0.000144355
rtoes 14.1216 -0 0
lowerback -5.27935 2.58338 -0.864303
upperback -1.935 3.47301 0.924029
thorax 0.852522 1.74346 1.63483
lowerneck -9.59199 -1.72766 2.55289
upperneck -2.64886 -2.55695 0.725677
head 0.747526 -1.28069 -0.28777
lclavicle -1.83876e-015 -1.21259e-014 0
lhumerus -41.4891 -12.6787 97.0318
lradius 38.6958 -0 0
lwrist 5.50978 0 0
lhand -10.9911 6.28337 -9.34835e-005
lfingers 7.12502 -0 0
lthumb 15.0291 35.7179 -9.01867e-005
rclavicle -1.83876e-015 -1.21259e-014 0
rhumerus -40.7171 -4.71675 -88.6425
rradius 39.4316 -0 0
rwrist 10.758 0 0
rhand -26.7391 -20.0802 -0.00206664
rfingers 7.12502 -0 0
rthumb -0.168064 -50.0594 -0.00199142
35
root 5.9865 16.8866 -28.0837 10.059 -1.4578 -2.45128
lfemur -21.2991 2.8022 -19.5196
ltibia 35.4284 -0 0
lfoot -34.9239 2.66124 -0.170993
ltoes 36.3768 -0 0
rfemur -16.8645 6.65323 19.7892
rtibia 30.6158 -0 0
rfoot -27.5448 -18.9358 0.000209066
rtoes 13.3925 -0 0
lowerback -5.234 2.57232 -0.728494
upperback -1.91652 3.45118 0.87911
thorax 0.856063 1.73225 1.51047
lowerneck -9.60049 -1.74624 2.53507
upperneck -2.73986 -2.57899 0.775738
head 0.721089 -1.29154 -0.269345
lclavicle -1.83876e-015 -1.21259e-014 0
lhumerus -41.4533 -12.7084 96.9473
lradius 38.8713 -0 0
lwrist 5.58137 0 0
lhand -10.9897 6.15441 -0.000135391
lfingers 7.12502 -0 0
lthumb 15.0304 35.5888 -0.000130617
rclavicle -1.83876e-015 -1.21259e-014 0
rhumerus -40.6824 -4.53616 -88.763
rradius 39.5253 -0 0
rwrist 10.6338 0 0
rhand -26.6798 -20.149 -0.00299308
rfingers 7.12502 -0 0
rthumb -0.110741 -50.128 -0.00288414
36
root 5.98252 16.8825 -28.0865 10.0913 -1.31359 -2.48043
lfemur -21.7009 3.1932 -19.4546
ltibia 35.9615 -0 0
lfoot -34.4922 2.12401 -0.219912
ltoes 36.3139 -0 0
rfemur -16.8844 6.39817 19.8452
rtibia 30.6204 -0 0
rfoot -27.5387 -18.8891 0.0002688
rtoes 12.6634 -0 0
lowerback -5.18868 2.56116 -0.592696
upperback -1.89801 3.42937 0.834184
thorax 0.859629 1.72104 1.38611
lowerneck -9.60899 -1.76483 2.51725
upperneck -2.83087 -2.60095 0.825836
head 0.694648 -1.30239 -0.250914
lclavicle -1.83876e-015 -1.21259e-014 0
lhumerus -41.4173 -12.7381 96.8628
lradius 39.0468 -0 0
lwrist 5.65296 0 0
lhand -10.9883 6.02546 -0.000174076
lfingers 7.12502 -0 0
lthumb 15.0318 35.4598 -0.000167937
rclavicle -1.83876e-015 -1.21259e-014 0
rhumerus -40.648 -4.3555 -88.8833
rradius 39.619 -0 0
rwrist 10.5096 0 0
rhand -26.6204 -20.2177 -0.00384826
rfingers 7.12502 -0 0
rthumb -0.0534177 -50.1966 -0.0037082
37
root 5.97853 16.8784 -28.0893 10.1236 -1.16936 -2.50948
lfemur -22.1024 3.58464 -19.3924
ltibia 36.4946 -0 0
lfoot -34.06 1.58644 -0.26478
ltoes 36.251 -0 0
rfemur -16.9044 6.14312 19.9012
rtibia 30.6251 -0 0
rfoot -27.5326 -18.8424 0.000323556
rtoes 11.9343 -0 0
lowerback -5.14338 2.54988 -0.456907
upperback -1.87949 3.40757 0.789253
thorax 0.86322 1.70983 1.26176
lowerneck -9.61748 -1.78341 2.49943
upperneck -2.92191 -2.62283 0.875969
head 0.668204 -1.31323 -0.232477
lclavicle -1.83876e-015 -1.21259e-014 0
lhumerus -41.3814 -12.7678 96.7782
lradius 39.2223 -0 0
lwrist 5.72455 0 0
lhand -10.9868 5.89651 -0.000209538
lfingers 7.12502 -0 0
lthumb 15.0332 35.3307 -0.000202149
rclavicle -1.83876e-015 -1.21259e-014 0
rhumerus -40.6141 -4.17476 -89.0035
rradius 39.7127 -0 0
rwrist 10.3853 0 0
rhand -26.561 -20.2865 -0.00463219
rfingers 7.12502 -0 0
rthumb 0.0039069 -50.2652 -0.00446359
38
root 5.97455 16.8744 -28.0921 10.1557 -1.02512 -2.53846
lfemur -22.5037 3.97651 -19.3329
ltibia 37.0278 -0 0
lfoot -33.6274 1.04853 -0.305589
ltoes 36.1881 -0 0
rfemur -16.9248 5.8881 19.9573
rtibia 30.6297 -0 0
rfoot -27.5264 -18.7957 0.000373334
rtoes 11.2052 -0 0
lowerback -5.09812 2.5385 -0.321129
upperback -1.86095 3.38579 0.744315
thorax 0.866835 1.69864 1.1374
lowerneck -9.62597 -1.80201 2.48161
upperneck -3.01297 -2.64463 0.926138
head 0.641756 -1.32406 -0.214036
lclavicle -1.83876e-015 -1.21259e-014 0
lhumerus -41.3454 -12.7974 96.6936
lradius 39.3977 -0 0
lwrist 5.79614 0 0
lhand -10.9854 5.76756 -0.000241777
lfingers 7.12502 -0 0
lthumb 15.0346 35.2017 -0.00023325
rclavicle -1.83876e-015 -1.21259e-014 0
rhumerus -40.5805 -3.99396 -89.1235
rradius 39.8063 -0 0
rwrist 10.2611 0 0
rhand -26.5017 -20.3553 -0.00534485
rfingers 7.12502 -0 0
rthumb 0.0612324 -50.3339 -0.00515032
